<?xml version="1.0" standalone="no"?>
<!DOCTYPE svg PUBLIC "-//W3C//DTD SVG 20010904//EN"
 "http://www.w3.org/TR/2001/REC-SVG-20010904/DTD/svg10.dtd">
<svg version="1.0" xmlns="http://www.w3.org/2000/svg"
 width="512.000000pt" height="512.000000pt" viewBox="0 0 512.000000 512.000000"
 preserveAspectRatio="xMidYMid meet">

<g transform="translate(0.000000,512.000000) scale(0.100000,-0.100000)"
fill="#000000" stroke="none">
<path d="M2370 5113 c-232 -22 -409 -56 -590 -115 -397 -129 -719 -325 -1019
-621 -412 -407 -661 -909 -742 -1497 -18 -125 -18 -515 0 -640 105 -762 511
-1409 1146 -1826 840 -552 1956 -550 2797 4 213 141 441 349 600 547 619 775
732 1844 289 2735 -100 201 -250 423 -380 563 -24 26 -42 49 -40 52 3 2 70 10
149 16 80 6 147 13 149 15 4 4 -20 287 -25 293 -6 6 -833 -65 -841 -72 -6 -6
61 -835 68 -841 5 -5 288 19 292 25 2 2 -2 74 -10 159 -20 227 -23 223 76 105
212 -254 374 -568 457 -885 207 -793 -38 -1646 -632 -2209 -803 -760 -2035
-828 -2917 -162 -621 469 -958 1233 -886 2011 49 537 303 1060 696 1430 385
362 866 573 1396 613 l157 11 0 148 0 148 -77 -2 c-43 0 -94 -3 -113 -5z"/>
<path d="M2390 4140 c-485 -61 -894 -312 -1157 -712 -347 -528 -347 -1208 0
-1736 350 -531 973 -803 1594 -697 440 76 820 328 1067 708 337 517 337 1197
0 1714 -243 374 -606 619 -1041 703 -125 24 -350 34 -463 20z m20 -435 l0
-135 150 0 150 0 0 135 0 135 43 -6 c433 -66 814 -361 989 -766 39 -89 78
-225 92 -315 l6 -43 -135 0 -135 0 0 -150 0 -150 135 0 135 0 -6 -42 c-84
-550 -532 -998 -1081 -1082 l-43 -6 0 135 0 135 -150 0 -150 0 0 -135 0 -136
-37 6 c-225 39 -407 115 -580 243 -253 189 -431 466 -492 769 -12 55 -21 104
-21 107 0 3 61 6 135 6 l135 0 0 150 0 150 -135 0 c-74 0 -135 3 -135 6 0 3 9
52 21 107 85 420 389 778 793 936 84 33 252 77 304 80 9 1 12 -32 12 -134z"/>
<path d="M2410 3005 l0 -374 -192 -162 c-106 -89 -197 -166 -202 -170 -10 -9
171 -229 188 -228 6 0 121 93 256 207 l245 207 3 448 2 447 -150 0 -150 0 0
-375z"/>
</g>
</svg>
