<?xml version="1.0" standalone="no"?>
<!DOCTYPE svg PUBLIC "-//W3C//DTD SVG 20010904//EN"
 "http://www.w3.org/TR/2001/REC-SVG-20010904/DTD/svg10.dtd">
<svg version="1.0" xmlns="http://www.w3.org/2000/svg"
 width="512.000000pt" height="512.000000pt" viewBox="0 0 512.000000 512.000000"
 preserveAspectRatio="xMidYMid meet">

<g transform="translate(0.000000,512.000000) scale(0.100000,-0.100000)"
fill="#ff5e14" stroke="none">
<path d="M4076 4955 c-23 -12 -593 -549 -753 -710 l-63 -63 0 -635 c0 -590 1
-636 18 -655 9 -12 139 -73 289 -136 150 -63 281 -120 292 -126 20 -10 21 -18
21 -309 l0 -298 -57 -6 c-38 -4 -63 -13 -77 -27 -21 -20 -21 -30 -24 -493 -1
-271 1 -499 7 -535 21 -133 100 -239 219 -295 192 -90 418 -5 510 191 l27 57
3 515 c1 283 0 525 -3 538 -7 28 -58 52 -110 52 l-35 0 0 303 0 303 283 119
c155 65 293 129 307 142 l25 23 3 623 c2 579 1 624 -15 653 -25 43 -782 762
-814 773 -19 6 -35 5 -53 -4z m382 -505 l341 -325 -2 -569 -2 -570 -335 -143
c-184 -78 -342 -142 -350 -143 -8 0 -168 65 -355 144 l-340 144 -3 564 -2 564
347 332 c192 182 351 330 354 329 3 -1 159 -148 347 -327z m-315 -1905 l37 13
0 -269 0 -269 -75 0 -75 0 0 270 0 269 38 -13 c31 -11 45 -11 75 -1z m197
-1123 c0 -520 0 -518 -101 -594 -87 -67 -217 -55 -296 28 -23 23 -47 60 -52
81 -7 24 -11 201 -11 481 l0 442 230 0 230 0 0 -438z"/>
<path d="M202 4457 l-22 -23 0 -2112 c0 -2099 0 -2112 20 -2132 20 -20 33 -20
1363 -20 l1344 0 21 23 c22 23 22 28 22 345 l0 322 319 0 320 0 28 24 28 24 3
684 c2 375 0 702 -3 726 -4 24 -15 51 -28 62 -20 19 -37 20 -649 20 l-628 0 0
270 0 270 310 0 c327 0 349 3 369 47 15 33 15 723 0 756 -6 14 -22 30 -36 36
-17 8 -304 11 -993 11 l-970 0 0 325 c0 321 0 324 -22 345 -21 19 -33 20 -398
20 l-377 0 -21 -23z m668 -397 l0 -270 -270 0 -270 0 0 270 0 270 270 0 270 0
0 -270z m620 -695 l0 -265 -580 0 -580 0 0 265 0 265 580 0 580 0 0 -265z
m1380 0 l0 -265 -615 0 -615 0 0 265 0 265 615 0 615 0 0 -265z m-2000 -695
l0 -270 -270 0 -270 0 0 270 0 270 270 0 270 0 0 -270z m1310 0 l0 -270 -577
2 -578 3 -3 268 -2 267 580 0 580 0 0 -270z m-692 -692 l2 -268 -580 0 -580 0
0 270 0 270 578 -2 577 -3 3 -267z m1312 2 l0 -270 -580 0 -580 0 0 270 0 270
580 0 580 0 0 -270z m690 0 l0 -270 -270 0 -270 0 0 270 0 270 270 0 270 0 0
-270z m-2620 -700 l0 -270 -270 0 -270 0 0 270 0 270 270 0 270 0 0 -270z
m1310 0 l0 -270 -577 2 -578 3 -3 268 -2 267 580 0 580 0 0 -270z m1310 0 l0
-270 -575 0 -575 0 0 270 0 270 575 0 575 0 0 -270z m-2000 -690 l0 -270 -580
0 -580 0 0 270 0 270 580 0 580 0 0 -270z m1310 0 l0 -270 -580 0 -580 0 0
270 0 270 580 0 580 0 0 -270z"/>
</g>
</svg>
