<?xml version="1.0" standalone="no"?>
<!DOCTYPE svg PUBLIC "-//W3C//DTD SVG 20010904//EN"
 "http://www.w3.org/TR/2001/REC-SVG-20010904/DTD/svg10.dtd">
<svg version="1.0" xmlns="http://www.w3.org/2000/svg"
 width="512.000000pt" height="512.000000pt" viewBox="0 0 512.000000 512.000000"
 preserveAspectRatio="xMidYMid meet">

<g transform="translate(0.000000,512.000000) scale(0.100000,-0.100000)"
fill="#000000" stroke="none">
<path d="M2422 4930 c-121 -32 -186 -72 -294 -183 -120 -123 -134 -127 -279
-77 -218 76 -442 24 -605 -138 -95 -96 -142 -200 -169 -375 -8 -50 -62 -104
-112 -112 -175 -27 -279 -74 -375 -169 -115 -116 -172 -253 -171 -416 0 -90
13 -147 58 -262 7 -17 -5 -18 -171 -18 -171 0 -179 -1 -220 -25 -28 -16 -49
-39 -63 -68 -20 -42 -21 -56 -21 -527 0 -471 1 -485 21 -527 14 -29 35 -52 63
-68 41 -24 49 -25 220 -25 166 0 178 -1 171 -17 -45 -116 -58 -173 -58 -263
-1 -292 195 -524 488 -575 49 -8 99 -23 115 -35 32 -23 60 -76 60 -117 1 -99
75 -256 165 -345 115 -115 252 -172 415 -171 81 0 109 5 189 33 146 50 159 46
279 -78 110 -112 191 -160 317 -187 129 -27 244 -11 375 51 62 29 91 52 172
136 120 124 133 128 279 78 80 -28 108 -33 189 -33 292 -1 524 196 575 487 23
135 46 158 181 181 292 51 488 283 487 575 0 90 -13 147 -58 263 -7 16 5 17
171 17 171 0 179 1 220 25 28 16 49 39 63 68 20 42 21 56 21 527 0 471 -1 485
-21 527 -14 29 -35 52 -63 68 -41 24 -49 25 -220 25 -166 0 -178 1 -171 18 45
115 58 172 58 262 1 163 -56 300 -171 415 -89 90 -246 164 -345 165 -41 0 -94
28 -117 60 -12 16 -27 66 -35 115 -51 293 -283 489 -575 488 -81 0 -109 -5
-189 -33 -146 -50 -159 -46 -279 78 -108 112 -171 150 -300 183 -94 24 -176
23 -270 -1z m241 -145 c107 -28 148 -57 282 -204 22 -24 64 -55 94 -69 46 -21
63 -24 130 -19 46 3 94 13 121 25 156 71 340 40 465 -79 86 -81 110 -133 145
-310 14 -71 56 -139 111 -179 43 -31 94 -48 204 -69 85 -16 157 -56 220 -122
126 -132 154 -304 79 -481 -13 -32 -24 -67 -24 -78 0 -19 -6 -20 -163 -20
l-162 0 -45 97 c-87 190 -196 348 -342 495 -98 99 -127 110 -173 63 -45 -44
-35 -66 84 -189 115 -121 196 -234 269 -374 l44 -87 -1438 -3 c-790 -1 -1439
0 -1442 2 -7 8 97 196 156 281 82 118 286 317 407 398 174 115 361 193 575
238 88 19 136 23 300 23 164 0 212 -4 300 -23 140 -30 261 -71 399 -136 96
-45 117 -52 141 -44 26 10 50 44 50 73 0 29 -43 64 -132 108 -177 88 -376 145
-580 167 -703 78 -1399 -305 -1711 -941 l-72 -147 -161 0 -162 -1 -6 35 c-4
19 -15 53 -26 77 -69 159 -36 340 85 467 63 66 135 106 220 122 110 21 161 38
204 69 55 40 97 108 111 179 35 177 59 229 145 310 125 119 309 150 465 79 27
-12 75 -22 121 -25 67 -5 84 -2 130 19 30 14 72 45 94 69 132 145 175 176 278
204 69 18 140 18 210 0z m2302 -2225 l0 -465 -1628 -5 -1629 -5 -19 -24 c-25
-30 -24 -62 2 -95 l20 -26 1145 0 c629 0 1144 -2 1144 -5 0 -11 -61 -127 -102
-193 -95 -156 -256 -331 -408 -444 -488 -363 -1146 -407 -1685 -113 -188 102
-404 296 -527 470 -50 72 -158 262 -158 278 0 4 69 7 154 7 l155 0 20 26 c26
33 27 65 2 95 l-19 24 -639 5 -638 5 -3 455 c-1 250 0 461 3 468 3 10 490 12
2407 10 l2403 -3 0 -465z m-3938 -768 c256 -521 768 -877 1355 -941 723 -80
1428 323 1738 991 l45 98 163 0 c156 0 162 -1 162 -20 0 -11 11 -47 24 -79 74
-174 46 -348 -75 -476 -81 -86 -133 -110 -310 -145 -71 -14 -139 -56 -179
-111 -31 -43 -48 -94 -69 -204 -16 -85 -56 -157 -122 -220 -131 -125 -304
-154 -480 -79 -121 50 -255 24 -336 -67 -132 -149 -195 -191 -319 -212 -79
-14 -168 0 -250 37 -42 19 -82 53 -158 130 -121 124 -156 141 -268 133 -42 -2
-92 -14 -118 -25 -158 -72 -341 -39 -469 83 -66 63 -106 135 -122 220 -21 110
-38 161 -69 204 -40 55 -108 97 -179 111 -177 35 -229 59 -310 145 -117 124
-149 307 -81 463 11 24 22 58 26 77 l6 35 162 -1 161 0 72 -147z"/>
<path d="M2357 3934 c-267 -48 -543 -214 -694 -418 -54 -73 -57 -113 -14 -157
l29 -29 871 0 c653 0 877 3 896 12 30 13 55 55 55 90 0 37 -36 87 -134 184
-173 172 -375 278 -610 319 -108 18 -294 18 -399 -1z m391 -150 c193 -40 354
-122 489 -249 l58 -54 -734 -1 -735 0 30 31 c45 47 162 133 234 173 74 40 222
92 301 105 91 15 273 12 357 -5z"/>
<path d="M569 2912 c-104 -35 -177 -102 -227 -210 -38 -82 -38 -202 0 -284 51
-110 118 -171 229 -208 116 -40 249 -13 332 68 28 27 37 44 37 69 0 72 -73 96
-133 43 -42 -37 -77 -50 -130 -50 -111 1 -217 108 -217 220 0 82 66 175 146
206 55 21 126 15 183 -14 52 -27 71 -27 105 -1 34 27 36 77 3 107 -67 63 -223
88 -328 54z"/>
<path d="M1134 2923 c-12 -2 -30 -13 -40 -25 -18 -19 -19 -43 -19 -345 l0
-325 24 -19 c20 -17 40 -19 173 -19 145 0 150 1 173 25 14 13 25 36 25 50 0
14 -11 37 -25 50 -22 23 -31 25 -125 25 l-100 0 0 69 0 69 96 4 c86 3 98 5
115 27 26 32 24 73 -4 99 -20 19 -35 22 -116 22 l-92 0 3 73 3 72 100 3 c86 2
103 6 122 24 40 38 25 96 -31 118 -26 9 -237 12 -282 3z"/>
<path d="M1626 2906 l-26 -25 0 -321 0 -321 25 -24 c13 -14 36 -25 50 -25 14
0 37 11 50 25 23 22 25 32 25 117 l1 93 67 -75 c155 -174 176 -187 227 -135
41 40 33 65 -55 167 -44 51 -80 96 -80 99 0 4 14 12 30 19 43 18 108 95 121
144 25 92 -19 197 -105 251 -47 29 -55 30 -177 33 -126 4 -128 4 -153 -22z
m247 -138 c51 -27 60 -71 24 -114 -20 -23 -34 -28 -85 -32 l-62 -4 0 81 0 81
51 0 c28 0 60 -5 72 -12z"/>
<path d="M2165 2905 c-14 -13 -25 -36 -25 -50 0 -14 11 -37 25 -50 20 -21 34
-25 80 -25 l55 0 0 -254 c0 -159 4 -265 11 -285 19 -54 79 -69 117 -28 21 23
22 30 22 295 l0 272 59 0 c76 0 105 21 105 75 0 27 -6 43 -23 56 -21 17 -42
19 -213 19 -187 0 -189 0 -213 -25z"/>
<path d="M2756 2909 l-26 -20 0 -329 0 -329 26 -20 c35 -28 69 -26 99 4 l25
24 0 321 0 321 -25 24 c-30 30 -64 32 -99 4z"/>
<path d="M3054 2918 c-41 -19 -44 -45 -44 -369 l0 -310 25 -24 c13 -14 36 -25
50 -25 14 0 37 11 50 25 24 23 25 30 25 150 l0 125 85 0 c78 0 88 2 110 25 14
13 25 36 25 50 0 14 -11 37 -25 50 -22 23 -32 25 -110 25 l-85 0 0 70 0 70 99
0 c96 0 100 1 120 26 12 15 21 33 21 40 0 29 -25 64 -53 74 -38 13 -265 12
-293 -2z"/>
<path d="M3530 2910 c-19 -19 -20 -33 -20 -350 0 -317 1 -331 20 -350 26 -26
70 -26 98 0 22 21 22 24 22 350 0 326 0 329 -22 350 -28 26 -72 26 -98 0z"/>
<path d="M3823 2923 c-13 -2 -32 -16 -43 -30 -19 -25 -20 -40 -20 -340 l0
-314 25 -24 c23 -24 28 -25 173 -25 131 0 153 2 173 19 32 26 32 86 0 112 -19
16 -40 19 -122 19 l-99 0 0 69 0 69 96 4 c86 3 98 5 115 27 25 30 24 62 -2 95
-20 25 -25 26 -115 26 l-95 0 3 73 3 72 102 3 c96 3 103 4 123 29 26 34 25 56
-4 90 -24 28 -25 28 -158 30 -73 0 -143 -1 -155 -4z"/>
<path d="M4293 2896 c-12 -9 -25 -30 -28 -47 -4 -18 -4 -164 0 -326 9 -360 -4
-333 160 -333 155 0 204 16 276 89 79 80 102 144 102 276 0 120 -22 188 -85
259 -68 79 -101 90 -263 94 -115 3 -144 0 -162 -12z m284 -156 c89 -54 110
-253 36 -341 -37 -43 -74 -59 -143 -59 l-60 0 0 210 0 210 68 0 c49 0 76 -5
99 -20z"/>
<path d="M1649 1761 c-44 -44 -40 -85 16 -160 136 -179 377 -336 612 -397 133
-35 338 -43 472 -20 242 42 443 146 617 320 98 97 134 147 134 184 0 35 -25
77 -55 90 -19 9 -243 12 -896 12 l-871 0 -29 -29z m1588 -176 c-137 -129 -297
-210 -497 -251 -123 -25 -323 -15 -445 21 -162 47 -342 151 -439 254 l-30 31
735 0 734 -1 -58 -54z"/>
</g>
</svg>
