<?xml version="1.0" standalone="no"?>
<!DOCTYPE svg PUBLIC "-//W3C//DTD SVG 20010904//EN"
 "http://www.w3.org/TR/2001/REC-SVG-20010904/DTD/svg10.dtd">
<svg version="1.0" xmlns="http://www.w3.org/2000/svg"
 width="512.000000pt" height="512.000000pt" viewBox="0 0 512.000000 512.000000"
 preserveAspectRatio="xMidYMid meet">

<g transform="translate(0.000000,512.000000) scale(0.100000,-0.100000)"
fill="#ffffff" stroke="none">
<path d="M2494 5106 c-17 -8 -44 -31 -60 -52 l-29 -37 -3 -341 c-2 -338 -2
-341 20 -381 25 -43 92 -85 138 -85 46 0 113 42 138 85 22 40 22 43 20 381
l-3 341 -29 37 c-47 62 -123 82 -192 52z"/>
<path d="M2195 4632 c-110 -68 -194 -162 -255 -281 -107 -213 -90 -495 41
-688 16 -23 29 -45 29 -50 0 -4 -156 -461 -347 -1015 l-348 -1008 -233 0
c-301 0 -301 0 -302 -143 0 -80 2 -90 25 -112 24 -25 26 -25 215 -25 104 0
190 -3 190 -7 0 -5 -39 -124 -87 -266 l-88 -258 23 -19 c12 -10 22 -22 22 -27
0 -4 -50 -153 -111 -331 -109 -316 -111 -324 -93 -341 27 -25 138 -64 162 -57
14 5 64 101 172 325 l152 318 43 -13 c33 -10 47 -10 59 -1 9 7 57 129 106 272
50 143 102 293 116 333 l26 72 349 0 349 0 0 -36 c0 -76 76 -154 150 -154 74
0 150 78 150 154 l0 36 349 0 349 0 26 -72 c14 -40 66 -190 116 -333 49 -143
97 -265 106 -272 12 -9 26 -9 59 1 l43 13 152 -318 c106 -222 158 -320 172
-325 27 -8 166 44 173 66 3 9 -44 160 -105 335 -60 175 -110 322 -110 327 0 5
10 18 23 28 l22 19 -88 258 c-48 142 -87 261 -87 266 0 4 86 7 190 7 189 0
191 0 215 25 23 22 25 32 25 112 -1 143 -1 143 -302 143 l-233 0 -348 1008
c-191 554 -347 1011 -347 1015 0 5 13 27 29 50 131 193 148 475 41 688 -61
120 -146 213 -257 282 l-42 26 -3 -202 c-4 -198 -3 -203 21 -256 36 -79 41
-204 11 -284 -42 -112 -134 -197 -249 -231 -185 -54 -382 47 -451 231 -30 80
-25 205 11 284 25 53 25 56 20 255 l-6 201 -40 -25z m525 -1332 c26 -72 590
-1703 590 -1707 0 -2 -134 -3 -299 -3 l-298 0 -6 46 c-9 83 -68 138 -147 138
-79 0 -138 -55 -147 -138 l-6 -46 -298 0 c-165 0 -299 1 -299 3 0 4 564 1635
590 1707 l21 55 139 0 139 0 21 -55z"/>
</g>
</svg>
