<?xml version="1.0" standalone="no"?>
<!DOCTYPE svg PUBLIC "-//W3C//DTD SVG 20010904//EN"
 "http://www.w3.org/TR/2001/REC-SVG-20010904/DTD/svg10.dtd">
<svg version="1.0" xmlns="http://www.w3.org/2000/svg"
 width="512.000000pt" height="512.000000pt" viewBox="0 0 512.000000 512.000000"
 preserveAspectRatio="xMidYMid meet">

<g transform="translate(0.000000,512.000000) scale(0.100000,-0.100000)"
fill="#ffffff" stroke="none">
<path d="M4030 4815 c-19 -20 -25 -40 -28 -90 l-4 -65 -47 -22 c-64 -32 -190
-160 -229 -234 -155 -297 -8 -671 308 -780 36 -13 104 -28 150 -33 92 -10 124
-27 154 -82 26 -48 15 -102 -29 -146 -28 -28 -40 -33 -79 -33 -83 0 -125 37
-141 123 -13 69 -35 77 -217 77 -158 0 -159 0 -185 -26 -24 -24 -25 -30 -20
-99 l5 -73 -148 -4 c-140 -3 -150 -4 -173 -26 -34 -32 -39 -60 -27 -139 24
-147 124 -284 254 -348 90 -44 148 -55 302 -55 l124 0 0 -238 0 -238 -33 -32
c-32 -31 -36 -32 -115 -32 -75 0 -85 -2 -107 -25 -14 -13 -25 -36 -25 -50 0
-14 11 -37 25 -50 19 -20 34 -25 75 -25 l50 0 0 -65 0 -65 -410 0 -410 0 0 65
0 65 210 0 c211 0 211 0 235 25 14 13 25 36 25 50 0 14 -11 37 -25 50 l-24 25
-235 0 -234 0 -25 43 c-14 23 -52 67 -84 97 l-59 55 183 185 c207 210 217 227
165 280 l-30 30 -592 0 -592 0 -30 -30 c-52 -53 -42 -70 166 -280 l184 -185
-59 -54 c-33 -30 -71 -73 -85 -97 l-26 -44 -467 0 -467 0 -32 33 -32 33 0 237
0 237 124 0 c154 0 212 11 302 55 130 64 230 201 254 348 18 114 -8 154 -104
164 -36 4 -55 10 -52 17 75 176 89 239 90 391 0 125 -13 197 -56 305 -138 349
-507 569 -874 521 -182 -24 -339 -99 -471 -225 -86 -81 -141 -157 -188 -260
-56 -121 -69 -185 -69 -341 -1 -152 18 -244 69 -345 14 -27 25 -52 25 -55 0
-3 -15 -5 -32 -5 -120 0 -156 -54 -127 -192 24 -116 110 -241 208 -302 87 -55
146 -69 313 -74 l158 -4 0 -235 0 -234 -36 -37 c-45 -46 -90 -138 -99 -202
-14 -103 34 -231 112 -300 76 -67 125 -84 233 -85 82 0 103 4 150 26 30 14 73
42 94 62 l39 37 468 0 468 0 37 -56 c20 -30 58 -73 84 -95 l48 -40 -96 -240
-96 -239 -115 0 c-72 0 -126 -5 -141 -13 -17 -8 -45 -51 -90 -139 l-65 -128
-105 0 c-173 -1 -262 -33 -355 -131 -68 -72 -101 -141 -115 -243 -13 -89 -7
-131 23 -164 l20 -22 1407 0 1407 0 20 22 c12 13 24 37 28 55 10 47 -12 180
-40 240 -37 81 -121 164 -208 204 -68 31 -80 33 -202 37 l-131 4 -64 127 c-45
87 -73 130 -90 138 -15 8 -69 13 -141 13 l-115 0 -96 239 -96 240 48 40 c26
22 64 65 84 95 l37 56 468 0 468 0 39 -37 c21 -20 64 -48 94 -62 47 -22 68
-26 150 -26 108 1 157 18 233 85 78 69 126 197 112 300 -9 64 -54 156 -99 202
l-36 37 0 234 0 235 158 5 c183 5 243 21 333 90 101 76 164 171 188 285 15 71
14 107 -4 142 -21 40 -64 50 -215 50 l-125 0 3 100 c5 121 -8 182 -56 280 -87
177 -253 283 -475 305 -56 6 -74 12 -103 37 -39 35 -54 78 -43 128 9 39 55 86
94 96 71 18 150 -35 161 -108 4 -22 17 -52 30 -67 22 -25 25 -26 164 -29 160
-4 181 -1 210 30 40 43 21 182 -42 308 -41 81 -142 184 -220 225 l-58 30 0 53
c0 57 -19 106 -45 116 -9 3 -87 6 -174 6 -156 0 -158 0 -181 -25z m250 -173
c0 -26 7 -57 15 -69 8 -11 48 -37 89 -56 92 -44 159 -109 197 -192 49 -108 50
-105 -24 -105 l-65 0 -26 55 c-61 123 -195 180 -332 140 -48 -13 -69 -27 -114
-73 -63 -65 -83 -114 -82 -205 1 -99 61 -190 154 -238 25 -13 83 -27 140 -34
174 -23 288 -99 352 -235 33 -70 45 -167 31 -255 l-6 -45 -70 0 c-38 0 -69 1
-69 3 0 1 7 20 15 42 19 53 19 99 -1 166 -12 42 -28 66 -74 111 -63 61 -125
88 -206 88 -98 0 -235 66 -299 144 -171 209 -99 525 143 633 87 39 102 57 102
120 l0 53 65 0 65 0 0 -48z m-3205 -247 c188 -48 353 -183 440 -360 50 -101
69 -183 69 -300 0 -122 -19 -201 -76 -315 l-43 -85 -89 -3 -88 -3 41 48 c157
178 173 461 37 666 -154 232 -465 313 -716 187 -62 -31 -80 -52 -80 -93 0 -63
68 -88 131 -49 102 62 258 68 374 14 84 -40 157 -113 198 -200 29 -61 32 -75
32 -167 0 -97 -2 -104 -38 -177 -43 -88 -107 -152 -195 -195 -52 -26 -67 -28
-167 -28 -104 0 -114 2 -176 32 -80 40 -159 120 -197 200 -25 54 -27 67 -27
200 0 130 -2 143 -20 157 -11 9 -31 16 -45 16 -64 0 -90 -59 -90 -207 0 -137
31 -229 114 -341 l47 -63 -83 3 -83 3 -33 55 c-18 30 -45 91 -59 135 -23 69
-27 98 -27 205 -1 112 2 134 28 214 58 176 185 321 351 401 50 24 115 48 145
54 30 6 64 13 75 15 36 9 188 -3 250 -19z m2875 -1024 c0 -5 3 -17 6 -26 6
-14 -2 -16 -62 -13 -63 3 -69 5 -72 26 -3 21 0 22 62 22 36 0 66 -4 66 -9z
m-2300 -203 c0 -7 -13 -40 -28 -73 -33 -68 -91 -126 -160 -158 -46 -22 -54
-22 -557 -22 -502 0 -511 0 -557 22 -65 30 -137 99 -164 158 -44 94 -122 85
721 85 589 0 745 -3 745 -12z m3310 -5 c0 -37 -49 -120 -96 -164 -93 -86 -79
-84 -654 -84 -499 0 -506 0 -552 22 -88 41 -162 128 -183 216 l-7 27 746 0
c704 0 746 -1 746 -17z m-3992 -604 l-3 -201 -63 -2 -62 -1 0 203 0 202 65 0
65 0 -2 -201z m1857 62 l-140 -139 -63 10 c-41 6 -83 6 -125 0 l-62 -10 -140
139 -140 139 405 0 405 0 -140 -139z m1455 -63 l0 -203 -62 1 -63 2 -3 201 -2
201 65 0 65 0 0 -202z m-1585 -242 c266 -122 270 -491 7 -614 -48 -23 -71 -27
-142 -27 -71 0 -94 4 -141 26 -257 121 -262 480 -9 609 89 45 194 48 285 6z
m-1681 -143 c56 -40 86 -95 86 -161 0 -68 -18 -109 -68 -154 -45 -41 -89 -53
-158 -45 -153 17 -224 206 -121 324 69 79 179 94 261 36z m3281 18 c81 -36
135 -131 120 -210 -23 -121 -126 -190 -250 -167 -43 8 -113 68 -132 113 -7 18
-13 55 -13 83 0 143 146 240 275 181z m-2225 -186 l0 -65 -410 0 -410 0 0 65
0 65 410 0 410 0 0 -65z m515 -483 c44 3 87 7 95 9 10 3 36 -50 96 -196 45
-110 83 -203 83 -207 1 -5 -134 -8 -300 -8 -237 0 -300 3 -296 13 69 175 151
375 158 388 7 15 15 16 46 7 21 -6 74 -8 118 -6z m645 -612 c16 -33 30 -62 30
-65 0 -3 -187 -5 -415 -5 l-416 0 -24 -25 c-30 -29 -32 -64 -6 -96 l19 -24
629 -5 c620 -5 629 -5 668 -27 76 -41 144 -137 145 -205 l0 -28 -1300 0 -1300
0 0 29 c0 67 68 163 144 204 39 21 56 22 389 27 l349 5 19 24 c26 32 24 67 -6
96 -23 24 -29 25 -160 25 -74 0 -135 2 -135 5 0 3 14 32 30 65 l30 60 640 0
640 0 30 -60z"/>
<path d="M873 4005 c-17 -7 -33 -20 -37 -30 -3 -9 -6 -74 -6 -144 0 -120 1
-129 23 -149 20 -19 35 -22 116 -22 102 0 127 8 142 47 21 56 -24 103 -96 103
l-35 0 0 74 c0 106 -39 150 -107 121z"/>
<path d="M2480 2204 c-46 -20 -87 -60 -112 -108 -30 -59 -22 -151 18 -208 111
-158 366 -94 382 96 5 66 -10 117 -51 163 -59 67 -159 91 -237 57z m122 -151
c22 -20 24 -66 2 -87 -8 -9 -28 -16 -44 -16 -36 0 -60 23 -60 57 0 55 62 83
102 46z"/>
<path d="M852 2057 c-55 -58 6 -147 79 -117 25 11 49 46 49 74 0 7 -9 25 -21
40 -27 34 -77 36 -107 3z"/>
<path d="M4161 2054 c-24 -30 -26 -43 -10 -78 23 -51 103 -55 128 -7 42 78
-64 154 -118 85z"/>
</g>
</svg>
