<?xml version="1.0" standalone="no"?>
<!DOCTYPE svg PUBLIC "-//W3C//DTD SVG 20010904//EN"
 "http://www.w3.org/TR/2001/REC-SVG-20010904/DTD/svg10.dtd">
<svg version="1.0" xmlns="http://www.w3.org/2000/svg"
 width="512.000000pt" height="512.000000pt" viewBox="0 0 512.000000 512.000000"
 preserveAspectRatio="xMidYMid meet">

<g transform="translate(0.000000,512.000000) scale(0.100000,-0.100000)"
fill="#000000" stroke="none">
<path d="M1630 5105 c-226 -50 -419 -199 -515 -399 -67 -141 -75 -187 -75
-448 l0 -227 -32 -23 c-42 -29 -63 -53 -90 -103 -20 -36 -22 -59 -26 -216 -5
-207 5 -270 52 -332 50 -66 104 -91 210 -97 l89 -5 14 -69 c44 -217 154 -396
324 -528 l81 -63 -4 -65 c-3 -36 -10 -75 -17 -87 l-11 -22 -47 21 c-78 35
-132 23 -266 -59 -75 -47 -144 -80 -211 -102 -530 -174 -913 -632 -986 -1177
-7 -56 -10 -185 -8 -345 l3 -255 38 -76 c44 -91 102 -146 197 -192 l65 -31
1312 -3 c1305 -2 1313 -2 1333 18 30 30 27 83 -6 109 -25 20 -39 21 -248 21
l-221 0 -102 571 -101 572 46 77 45 78 56 -1 c35 0 69 7 91 18 19 9 142 123
272 253 l237 235 43 -12 c24 -7 85 -30 135 -52 51 -21 100 -39 108 -39 9 0 27
11 40 25 32 31 33 74 2 104 -28 25 -155 81 -256 111 -43 12 -111 46 -169 82
-53 33 -111 67 -129 74 -46 20 -113 17 -158 -6 -22 -11 -41 -20 -43 -20 -11 0
-32 77 -32 117 0 58 2 61 65 108 75 56 142 123 191 191 l44 61 113 5 c86 4
124 10 162 27 65 28 138 101 167 165 22 49 23 61 26 386 2 223 0 349 -8 379
-14 55 -61 125 -100 148 l-30 17 0 207 c0 221 -8 287 -42 358 -45 92 -149 166
-255 179 l-56 7 -13 62 c-25 122 -86 202 -194 252 l-55 26 -495 2 c-396 1
-508 -1 -560 -12z m1058 -156 c57 -28 92 -82 101 -157 4 -32 16 -74 27 -93 24
-41 93 -79 146 -79 80 0 156 -60 178 -140 7 -26 10 -137 8 -306 l-3 -266 -27
-23 c-24 -21 -165 -75 -195 -75 -9 0 -13 55 -15 208 -3 200 -4 209 -30 264
-53 113 -160 185 -290 195 -60 4 -93 0 -183 -23 -154 -39 -323 -40 -475 -1
-126 32 -186 34 -273 7 -84 -26 -164 -96 -204 -178 -28 -56 -28 -61 -31 -264
-3 -170 -6 -208 -17 -208 -25 0 -178 59 -197 76 -17 16 -18 38 -18 298 0 311
4 343 62 463 42 86 157 205 245 251 129 68 154 71 677 71 459 1 471 1 514 -20z
m-776 -644 c185 -46 353 -44 533 6 122 33 205 19 267 -47 43 -47 48 -73 48
-278 0 -179 1 -195 23 -236 27 -54 61 -80 115 -87 l42 -6 0 -191 c0 -166 -11
-293 -26 -318 -3 -4 -24 5 -46 20 -40 26 -48 27 -187 30 -165 4 -204 -4 -258
-51 -95 -83 -96 -232 -2 -311 46 -39 73 -48 164 -55 l79 -6 -65 -42 c-136 -89
-266 -127 -434 -127 -145 0 -236 22 -367 91 -191 101 -321 256 -379 453 -18
64 -22 107 -26 293 l-5 217 31 0 c44 0 85 23 118 67 l28 36 5 216 c5 231 9
249 62 298 62 58 129 65 280 28z m-797 -538 c17 -15 51 -35 78 -45 l47 -17 0
-147 0 -148 -66 0 c-121 0 -134 24 -134 237 0 81 3 159 7 172 l6 25 16 -25 c9
-13 30 -37 46 -52z m2175 -115 c0 -222 -11 -242 -134 -242 l-66 0 0 144 0 145
66 31 c44 22 74 44 92 70 17 24 30 33 34 26 4 -6 8 -84 8 -174z m0 -414 c0
-89 -50 -156 -131 -178 -55 -15 -115 -10 -111 10 2 8 11 44 19 80 8 36 17 75
19 87 4 20 11 22 87 26 45 1 90 4 100 5 13 2 17 -5 17 -30z m-498 -200 c27
-22 30 -53 7 -81 -20 -27 -23 -27 -140 -27 -106 0 -121 2 -139 20 -24 24 -26
57 -3 82 14 16 33 18 138 18 82 0 126 -4 137 -12z m-886 -548 c166 -51 365
-49 540 5 43 14 80 25 82 25 1 0 2 -18 2 -40 0 -22 9 -63 20 -92 11 -29 20
-54 20 -54 0 -4 -398 -254 -404 -254 -7 0 -383 235 -399 249 -4 4 1 27 12 52
10 24 22 66 26 92 4 34 10 47 20 44 7 -3 43 -15 81 -27z m-128 -346 c138 -87
252 -162 252 -166 0 -8 -162 -146 -202 -172 -20 -13 -31 -15 -45 -7 -10 5
-112 104 -226 219 l-209 209 69 41 c37 23 77 40 89 39 11 -2 134 -75 272 -163z
m1135 124 l69 -41 -219 -219 c-120 -120 -224 -218 -230 -218 -14 0 -233 177
-233 188 1 11 513 332 529 332 8 0 46 -19 84 -42z m-1458 -358 c216 -216 245
-242 290 -255 27 -8 63 -12 81 -9 30 6 33 3 77 -74 l46 -80 -99 -562 c-55
-309 -100 -566 -100 -571 0 -5 -162 -9 -375 -9 l-375 0 0 189 c0 169 -2 191
-18 212 -27 33 -78 30 -109 -5 -22 -26 -23 -33 -23 -212 l0 -184 -189 0 c-208
0 -244 7 -311 60 -21 17 -50 54 -64 82 -26 52 -26 54 -26 299 0 279 10 362 65
526 104 313 320 571 610 729 78 43 229 103 260 104 13 0 103 -83 260 -240z
m822 -114 c81 -66 79 -53 16 -158 l-34 -58 -94 0 -93 0 -42 72 c-23 40 -42 75
-43 79 -1 3 38 40 88 81 86 72 91 75 110 59 12 -9 53 -43 92 -75z m-32 -388
c7 -30 185 -1043 185 -1051 0 -4 -120 -7 -266 -7 l-266 0 6 27 c3 16 44 246
91 513 47 267 88 497 91 513 5 27 7 27 80 27 68 0 74 -2 79 -22z"/>
<path d="M3910 2054 c-405 -38 -728 -279 -884 -658 -60 -145 -82 -374 -52
-544 36 -209 126 -381 281 -538 150 -152 297 -237 495 -287 122 -30 350 -30
470 0 369 93 646 360 757 728 25 83 27 104 27 270 0 154 -3 191 -21 257 -119
425 -459 718 -893 768 -83 10 -109 10 -180 4z m170 -154 c232 -28 442 -143
588 -320 59 -73 142 -234 167 -325 26 -94 31 -294 11 -396 -66 -324 -299 -577
-623 -676 -78 -23 -105 -26 -233 -26 -119 -1 -159 3 -225 21 -202 56 -390 188
-504 355 -44 65 -105 198 -126 272 -22 85 -31 267 -16 360 68 417 416 722 851
744 14 0 64 -4 110 -9z"/>
<path d="M4320 1424 c-50 -43 -300 -481 -300 -527 0 -15 9 -36 20 -47 18 -18
33 -20 165 -20 l145 0 0 -74 c0 -89 21 -126 74 -126 58 0 70 18 76 112 4 73 7
83 25 86 31 6 65 43 65 72 0 34 -24 66 -55 74 l-25 6 -1 148 c-1 215 -8 258
-47 293 -43 39 -98 40 -142 3z m40 -329 l0 -115 -69 0 -70 0 66 115 c36 63 67
115 69 115 2 0 4 -52 4 -115z"/>
<path d="M3570 1427 c-19 -6 -58 -34 -85 -62 -83 -83 -95 -176 -26 -205 43
-17 78 1 100 54 11 24 30 51 42 60 58 40 149 -3 149 -70 0 -58 -34 -113 -237
-387 -76 -103 -89 -141 -59 -182 17 -23 87 -34 226 -33 147 0 219 10 236 33
20 27 17 69 -5 96 -19 23 -24 24 -135 22 -64 -2 -116 0 -116 3 0 4 29 45 64
93 177 239 210 339 151 458 -55 109 -181 159 -305 120z"/>
</g>
</svg>
