<?xml version="1.0" standalone="no"?>
<!DOCTYPE svg PUBLIC "-//W3C//DTD SVG 20010904//EN"
 "http://www.w3.org/TR/2001/REC-SVG-20010904/DTD/svg10.dtd">
<svg version="1.0" xmlns="http://www.w3.org/2000/svg"
 width="404.000000pt" height="476.000000pt" viewBox="0 0 404.000000 476.000000"
 preserveAspectRatio="xMidYMid meet">

<g transform="translate(0.000000,476.000000) scale(0.100000,-0.100000)"
fill="#000000" stroke="none">
<path d="M400 3508 l0 -883 -82 -82 -82 -82 41 -77 40 -76 -29 -73 -29 -72
-82 -24 -82 -24 0 -230 0 -229 75 -24 c41 -13 80 -27 85 -33 6 -5 22 -38 36
-72 l25 -62 -39 -79 -39 -79 81 -81 81 -81 0 -273 0 -272 1285 0 1285 0 0 250
c0 218 2 250 15 250 32 0 114 51 153 95 72 82 77 109 77 445 0 287 -1 296 -22
331 -12 19 -31 43 -42 53 -11 10 -17 24 -13 30 4 6 9 46 12 90 l5 78 60 19
c33 10 94 36 137 58 252 129 432 354 506 631 21 81 25 117 25 240 0 124 -4
159 -26 243 -74 279 -258 503 -522 635 -94 47 -170 70 -280 86 l-80 12 -3 122
-3 122 -1284 0 -1285 0 0 -882z m2448 700 l-3 -62 -80 -12 c-202 -29 -389
-121 -538 -263 -115 -108 -226 -302 -268 -466 -33 -129 -33 -341 0 -469 41
-159 124 -312 230 -429 105 -114 295 -235 424 -269 l47 -12 1 -56 c0 -30 6
-71 13 -90 11 -33 10 -37 -20 -72 -52 -58 -56 -90 -52 -402 3 -316 6 -330 84
-416 37 -41 118 -90 149 -90 13 0 15 -26 15 -190 l0 -190 -1165 0 -1165 0 0
152 c0 149 0 151 19 134 19 -17 23 -16 98 21 l78 39 62 -25 c34 -14 67 -30 72
-36 6 -5 20 -44 33 -85 l24 -75 229 0 229 0 24 75 c13 41 27 80 33 85 5 6 38
22 72 36 l62 26 78 -41 78 -40 161 161 160 160 -40 79 -39 79 24 60 c14 33 29
65 34 71 4 5 42 21 84 34 l75 24 0 231 0 232 -79 23 -80 22 -22 57 c-12 31
-26 61 -31 68 -6 7 6 41 32 94 l42 82 -160 159 -159 160 -82 -42 c-53 -26 -87
-38 -94 -32 -7 5 -37 19 -68 31 l-57 22 -22 80 -23 79 -232 0 -231 0 -25 -77
c-25 -82 -23 -80 -118 -122 l-43 -20 -80 40 c-76 38 -81 39 -99 23 -19 -17
-19 -3 -19 744 l0 762 1165 0 1166 0 -3 -62z m267 -209 c305 -75 547 -319 627
-632 29 -114 28 -281 -1 -397 -79 -311 -314 -548 -626 -631 -107 -28 -279 -31
-389 -5 -344 79 -601 350 -660 695 -20 117 -20 165 -1 272 27 159 83 286 178
404 211 261 546 374 872 294z m-1820 -1264 c10 -36 23 -69 29 -74 6 -4 36 -16
66 -26 30 -10 76 -28 102 -41 26 -13 54 -24 61 -24 8 0 40 14 72 31 l58 31
100 -100 100 -100 -32 -58 c-17 -32 -31 -64 -31 -71 0 -8 11 -35 24 -61 13
-26 31 -72 41 -102 10 -30 22 -60 27 -66 5 -7 38 -20 73 -29 l65 -18 0 -142 0
-142 -47 -13 c-85 -23 -100 -35 -113 -87 -6 -26 -26 -77 -44 -113 l-33 -64 34
-65 35 -64 -99 -99 -100 -99 -66 32 -66 33 -78 -36 c-43 -19 -96 -42 -118 -50
-37 -13 -41 -17 -59 -81 l-19 -67 -142 0 -142 0 -13 47 c-21 79 -36 100 -73
107 -18 3 -66 22 -106 41 -40 19 -78 35 -85 35 -7 0 -38 -14 -70 -31 l-58 -32
-100 101 -101 100 32 58 c17 32 31 64 31 71 0 7 -13 39 -29 71 -15 31 -36 80
-45 108 -18 55 -24 60 -114 85 l-42 12 0 142 0 142 65 18 c73 19 77 23 94 85
7 25 26 71 42 102 16 32 29 64 29 71 0 7 -14 39 -31 71 l-32 58 101 101 100
100 64 -35 64 -35 54 28 c30 16 80 36 110 45 30 9 60 20 66 25 6 5 19 38 29
74 l17 65 143 0 143 0 17 -65z m1735 -584 c0 -70 -17 -81 -118 -81 -105 0
-122 11 -122 79 l0 46 120 0 120 0 0 -44z m46 -225 c11 -16 14 -74 14 -300 l0
-279 -25 -43 c-66 -113 -222 -123 -301 -18 l-29 37 0 301 0 300 25 13 c18 10
64 13 163 11 124 -3 140 -5 153 -22z"/>
<path d="M650 3845 l0 -305 610 0 610 0 0 305 0 305 -610 0 -610 0 0 -305z
m1098 -2 l2 -183 -490 0 -490 0 0 185 0 185 488 -2 487 -3 3 -182z"/>
<path d="M650 3350 l0 -60 60 0 60 0 0 60 0 60 -60 0 -60 0 0 -60z"/>
<path d="M890 3350 l0 -60 460 0 460 0 0 60 0 60 -460 0 -460 0 0 -60z"/>
<path d="M650 3110 l0 -60 580 0 580 0 0 60 0 60 -580 0 -580 0 0 -60z"/>
<path d="M2050 1150 l0 -60 245 0 245 0 0 60 0 60 -245 0 -245 0 0 -60z"/>
<path d="M2050 905 l0 -65 245 0 245 0 0 65 0 65 -245 0 -245 0 0 -65z"/>
<path d="M2726 3880 c-39 -10 -108 -38 -155 -61 -118 -58 -248 -187 -309 -306
-114 -221 -114 -466 1 -687 58 -114 190 -245 304 -304 216 -112 471 -112 685
0 181 94 323 279 373 486 25 106 17 278 -18 387 -79 241 -281 428 -528 489
-91 22 -263 21 -353 -4z m373 -130 c188 -66 322 -200 392 -391 19 -54 23 -83
23 -189 0 -110 -3 -134 -27 -198 -65 -180 -208 -323 -385 -384 -90 -31 -287
-33 -372 -4 -101 34 -173 79 -251 156 -120 120 -179 260 -179 430 0 104 19
182 66 276 79 159 232 279 409 320 87 20 243 12 324 -16z"/>
<path d="M2985 3270 c-137 -138 -254 -250 -260 -250 -5 0 -39 29 -75 65 l-66
65 -42 -43 -42 -43 113 -112 112 -112 298 298 297 297 -43 43 -42 42 -250
-250z"/>
<path d="M1010 2545 c-221 -45 -392 -178 -486 -380 -85 -183 -83 -387 6 -570
94 -193 264 -326 472 -369 98 -20 168 -20 266 0 252 52 453 243 519 494 23 86
23 244 0 330 -67 253 -273 446 -526 494 -98 19 -162 19 -251 1z m60 -238 l0
-122 -50 -18 c-66 -24 -143 -101 -167 -167 l-18 -50 -122 0 c-137 0 -131 -4
-109 75 47 176 185 321 365 382 107 36 101 42 101 -100z m221 103 c76 -23 169
-77 223 -128 74 -70 143 -197 161 -295 l7 -37 -125 0 -125 0 -6 28 c-19 76
-121 178 -198 197 l-28 7 0 124 c0 141 -6 134 91 104z m-93 -355 c49 -21 81
-52 103 -100 23 -49 24 -84 3 -133 -52 -126 -200 -159 -295 -65 -95 91 -66
237 56 294 49 23 84 24 133 4z m-355 -263 c15 -73 126 -184 199 -199 l28 -5 0
-124 c0 -138 4 -132 -75 -110 -95 25 -167 68 -246 146 -78 78 -119 147 -145
245 -22 79 -28 75 110 75 l124 0 5 -28z m832 -9 c-37 -199 -203 -377 -400
-429 -79 -22 -75 -28 -75 111 0 106 2 125 15 125 59 0 175 103 202 181 l18 49
123 0 124 0 -7 -37z"/>
</g>
</svg>
