<?xml version="1.0" standalone="no"?>
<!DOCTYPE svg PUBLIC "-//W3C//DTD SVG 20010904//EN"
 "http://www.w3.org/TR/2001/REC-SVG-20010904/DTD/svg10.dtd">
<svg version="1.0" xmlns="http://www.w3.org/2000/svg"
 width="512.000000pt" height="512.000000pt" viewBox="0 0 512.000000 512.000000"
 preserveAspectRatio="xMidYMid meet">

<g transform="translate(0.000000,512.000000) scale(0.100000,-0.100000)"
fill="#ffffff" stroke="none">
<path d="M2355 5111 c-87 -22 -182 -98 -206 -165 l-12 -34 -121 -4 c-100 -3
-130 -8 -174 -27 -104 -47 -167 -160 -160 -286 10 -155 101 -263 239 -282 l54
-8 5 -110 c6 -116 11 -134 57 -176 66 -62 166 -80 248 -45 93 40 124 99 125
239 l0 97 38 0 c20 0 64 13 97 28 64 31 112 78 145 142 l20 40 118 0 c102 0
123 3 167 24 62 29 107 76 137 141 28 61 31 198 5 255 -31 70 -74 117 -134
146 l-58 29 -280 2 c-154 1 -293 -2 -310 -6z m568 -155 c56 -24 80 -59 85
-125 5 -67 -13 -110 -55 -138 -22 -15 -57 -19 -185 -23 -177 -6 -183 -8 -199
-80 -18 -82 -68 -123 -161 -135 -25 -3 -61 -16 -80 -28 -53 -36 -68 -77 -68
-189 0 -85 -3 -101 -20 -118 -24 -24 -57 -26 -88 -4 -20 14 -22 23 -22 112 -1
153 -41 214 -150 227 -63 8 -111 36 -137 81 -44 76 -20 161 57 201 39 21 57
23 182 23 134 0 140 1 163 25 14 13 25 34 25 45 0 45 50 109 100 129 41 16
514 14 553 -3z"/>
<path d="M320 4817 c-179 -50 -276 -238 -215 -417 22 -65 109 -159 167 -180
30 -11 40 -22 54 -59 35 -91 140 -177 232 -188 l49 -5 5 -102 c7 -120 27 -171
85 -210 92 -63 222 -52 294 24 44 46 59 100 59 209 l0 81 43 0 c57 0 138 41
182 92 66 78 87 208 50 318 -22 66 -100 149 -160 169 -27 10 -108 15 -247 18
-149 4 -208 8 -208 16 0 28 -51 117 -85 152 -75 74 -207 110 -305 82z m130
-147 c65 -18 120 -93 120 -164 0 -19 9 -45 21 -60 l20 -26 227 0 c126 0 244
-5 264 -10 108 -31 132 -211 35 -270 -16 -10 -52 -21 -81 -24 -29 -4 -66 -16
-84 -26 -56 -34 -66 -62 -72 -188 -6 -124 -14 -142 -70 -142 -51 0 -64 30 -70
157 l-5 114 -40 38 c-33 30 -52 39 -95 45 -95 13 -142 51 -160 130 -16 73 -25
83 -87 101 -35 10 -69 29 -89 49 -83 83 -57 218 50 267 47 21 67 23 116 9z"/>
<path d="M1880 3747 c-14 -7 -30 -24 -36 -37 -6 -14 -38 -430 -72 -939 -34
-502 -63 -915 -65 -918 -3 -2 -94 -21 -203 -42 l-199 -38 -7 46 c-5 25 -31
390 -58 811 -60 897 -40 810 -182 810 -81 0 -91 -2 -113 -25 -50 -49 -21 -113
56 -122 l45 -5 12 -182 c7 -99 12 -193 12 -208 l0 -28 -240 0 -240 0 1 43 c1
23 6 116 12 206 l12 164 35 12 c60 20 77 79 35 121 -23 23 -31 25 -101 22 -69
-3 -79 -6 -95 -28 -16 -22 -26 -148 -87 -1059 -44 -655 -73 -1036 -80 -1040
-6 -3 -72 -17 -147 -30 -118 -21 -139 -27 -155 -49 -19 -24 -20 -45 -20 -604
l0 -579 25 -24 24 -25 2511 0 2511 0 24 25 c25 24 25 27 25 190 0 163 0 166
-25 190 -31 32 -69 32 -100 0 -24 -23 -25 -30 -25 -140 l0 -115 -300 0 -300 0
0 318 0 319 -23 21 c-23 22 -29 22 -336 22 l-312 0 -24 -25 -25 -24 0 -316 0
-315 -295 0 -295 0 0 1355 0 1355 955 0 955 0 0 -1095 0 -1096 25 -24 c31 -32
69 -32 100 0 l25 24 0 1416 0 1416 -25 24 -24 25 -314 0 c-297 0 -314 -1 -334
-19 -20 -19 -42 -83 -146 -418 l-32 -103 -641 0 c-633 0 -642 0 -668 -21 l-26
-20 0 -445 c0 -244 -1 -444 -3 -444 -1 0 -236 -45 -522 -100 -285 -54 -520
-98 -521 -97 -3 4 47 732 51 745 3 9 68 12 279 12 l276 0 4 -22 c3 -13 9 -95
14 -183 10 -155 11 -160 37 -182 33 -29 57 -29 92 1 34 30 36 -50 -21 805 -42
623 -45 654 -65 675 -21 20 -31 21 -324 24 -231 2 -308 -1 -327 -11z m533
-214 c4 -43 9 -129 13 -190 l7 -113 -242 0 -241 0 4 23 c3 12 8 74 11 137 3
63 8 139 11 168 l6 52 213 0 212 0 6 -77z m2557 -328 l0 -195 -284 0 -284 0
22 73 c13 39 40 127 61 195 l38 122 224 0 223 0 0 -195z m-2516 -268 c4 -76 6
-140 4 -143 -3 -2 -124 -3 -269 -2 l-264 3 9 143 8 142 252 -2 251 -3 9 -138z
m-1371 -224 c3 -5 8 -74 12 -155 l7 -148 -272 0 -272 0 6 118 c4 64 9 134 12
155 l6 37 248 0 c137 0 251 -3 253 -7z m49 -693 c9 -129 17 -244 17 -256 1
-19 -13 -24 -174 -54 -122 -24 -181 -39 -195 -52 -18 -17 -20 -32 -20 -143 0
-109 -2 -124 -17 -129 -46 -13 -246 -46 -251 -41 -6 5 45 850 54 893 l4 22
283 -2 282 -3 17 -235z m1776 -986 l-3 -879 -1377 -3 -1378 -2 0 487 0 488
353 64 c193 35 358 66 365 68 30 12 42 61 42 175 l0 113 143 27 c134 25 361
69 1237 237 201 38 419 81 485 94 66 13 123 21 128 17 4 -3 6 -402 5 -886z
m1312 -619 l0 -265 -210 0 -210 0 0 265 0 265 210 0 210 0 0 -265z"/>
<path d="M1230 1430 c-18 -18 -20 -33 -20 -184 l0 -165 26 -20 c24 -19 40 -21
170 -21 85 0 153 5 168 11 41 19 48 53 44 214 -4 194 6 185 -209 185 -146 0
-161 -2 -179 -20z m240 -185 l0 -55 -55 0 -55 0 0 55 0 55 55 0 55 0 0 -55z"/>
<path d="M1764 1425 c-25 -25 -25 -26 -22 -185 3 -137 6 -162 21 -177 15 -15
40 -18 177 -21 159 -3 160 -3 185 22 25 25 25 27 25 184 0 212 10 202 -204
202 -154 0 -157 0 -182 -25z m236 -180 l0 -55 -55 0 -55 0 0 55 0 55 55 0 55
0 0 -55z"/>
<path d="M2302 1430 c-21 -20 -22 -29 -22 -185 l0 -164 26 -20 c24 -19 40 -21
170 -21 85 0 153 5 168 11 41 19 48 53 44 214 -4 194 6 185 -207 185 -144 0
-159 -2 -179 -20z m238 -185 l0 -55 -55 0 -55 0 0 55 0 55 55 0 55 0 0 -55z"/>
<path d="M470 838 c-41 -45 -13 -111 52 -123 18 -3 503 -5 1076 -3 l1044 3 24
28 c29 34 30 56 3 91 l-20 26 -1079 0 -1079 0 -21 -22z"/>
<path d="M3346 2569 l-26 -20 0 -175 c0 -161 2 -176 20 -194 20 -20 33 -20
674 -20 l655 0 21 27 c20 26 21 36 18 196 -3 164 -4 169 -27 188 -22 18 -48
19 -666 19 -635 0 -643 0 -669 -21z m1214 -194 l0 -65 -545 0 -545 0 0 65 0
65 545 0 545 0 0 -65z"/>
<path d="M3346 1989 l-26 -20 0 -175 c0 -161 2 -176 20 -194 19 -19 33 -20
289 -20 l270 0 20 26 c19 24 21 40 21 180 0 164 -7 195 -47 213 -15 7 -112 11
-272 11 -236 0 -250 -1 -275 -21z m444 -194 l0 -65 -160 0 -160 0 0 65 0 65
160 0 160 0 0 -65z"/>
<path d="M4115 1985 c-25 -24 -25 -27 -25 -195 0 -157 2 -172 20 -190 19 -19
33 -20 289 -20 l270 0 20 26 c19 24 21 40 21 181 0 167 -9 205 -52 217 -13 3
-135 6 -271 6 l-248 0 -24 -25z m445 -190 l0 -65 -160 0 -160 0 0 65 0 65 160
0 160 0 0 -65z"/>
<path d="M3345 1405 c-25 -24 -25 -27 -25 -195 0 -157 2 -172 20 -190 19 -19
33 -20 289 -20 l270 0 20 26 c19 24 21 40 21 180 0 164 -7 195 -47 213 -15 7
-112 11 -274 11 l-250 0 -24 -25z m445 -190 l0 -65 -160 0 -160 0 0 65 0 65
160 0 160 0 0 -65z"/>
<path d="M4115 1405 c-25 -24 -25 -27 -25 -195 0 -157 2 -172 20 -190 19 -19
33 -20 289 -20 l270 0 20 26 c19 24 21 40 21 180 0 164 -7 195 -47 213 -15 7
-112 11 -274 11 l-250 0 -24 -25z m445 -190 l0 -65 -160 0 -160 0 0 65 0 65
160 0 160 0 0 -65z"/>
</g>
</svg>
