<?xml version="1.0" standalone="no"?>
<!DOCTYPE svg PUBLIC "-//W3C//DTD SVG 20010904//EN"
 "http://www.w3.org/TR/2001/REC-SVG-20010904/DTD/svg10.dtd">
<svg version="1.0" xmlns="http://www.w3.org/2000/svg"
 width="64.000000pt" height="64.000000pt" viewBox="0 0 64.000000 64.000000"
 preserveAspectRatio="xMidYMid meet">

<g transform="translate(0.000000,64.000000) scale(0.100000,-0.100000)"
fill="#ff5e14" stroke="none">
<path d="M115 565 c-5 -2 -22 -6 -37 -9 -22 -5 -31 -18 -53 -76 -15 -38 -24
-77 -21 -87 8 -22 83 -102 99 -105 7 -1 -13 -4 -43 -7 l-55 -6 -3 -62 c-2 -52
0 -63 13 -63 20 0 57 -21 70 -40 8 -12 11 -6 15 24 3 21 12 43 21 49 26 16 68
0 75 -30 10 -37 -7 -57 -50 -61 -42 -4 -39 -22 4 -22 27 0 70 32 70 52 0 4 7
8 15 8 8 0 15 5 15 10 0 6 25 10 55 10 30 0 55 -4 55 -10 0 -5 6 -10 13 -10 8
0 20 -11 27 -25 25 -46 101 -46 122 0 6 14 17 25 25 25 7 0 13 6 13 13 0 8 10
22 21 33 12 10 25 28 30 39 5 11 14 28 21 37 10 14 9 20 -4 35 -9 10 -19 30
-23 45 -4 15 -14 33 -23 40 -13 11 -15 10 -10 -10 6 -22 5 -23 -60 -20 l-67 3
0 45 c0 45 0 45 37 48 29 2 39 -1 48 -17 11 -21 30 -29 30 -13 0 5 -9 18 -21
31 -19 20 -29 22 -97 19 l-76 -3 -37 40 c-51 55 -156 89 -214 70z m12 -122
c-23 -60 -42 -110 -44 -112 -5 -7 -62 62 -63 74 0 6 10 37 23 70 24 61 37 72
98 74 l27 1 -41 -107z m109 91 c39 -15 42 -18 34 -40 -11 -28 4 -33 18 -7 8
14 14 12 40 -18 17 -19 32 -38 32 -43 0 -5 -10 -36 -22 -68 -23 -63 -46 -82
-97 -76 -30 3 -30 2 4 91 15 40 21 67 14 65 -7 -2 -24 -37 -39 -78 -15 -41
-31 -75 -36 -75 -23 1 -74 18 -79 26 -6 9 76 239 85 239 2 0 23 -7 46 -16z
m194 -148 c0 -63 4 -66 96 -66 l64 0 0 -46 0 -46 -37 6 c-85 15 -132 17 -152
7 -21 -12 -21 -10 -21 87 0 54 3 102 7 105 3 4 15 7 25 7 15 0 18 -8 18 -54z
m-70 -91 c0 -8 -7 -15 -15 -15 -16 0 -20 12 -8 23 11 12 23 8 23 -8z m257 -37
c-3 -8 -6 -5 -6 6 -1 11 2 17 5 13 3 -3 4 -12 1 -19z m-257 -9 c0 -20 -4 -20
-78 -14 -108 8 -181 8 -224 0 -30 -6 -38 -4 -38 7 0 8 3 18 7 21 3 4 80 7 170
7 158 0 163 -1 163 -21z m-146 -44 c28 -43 20 -61 -13 -26 -38 40 -71 40 -105
0 -21 -25 -26 -27 -26 -12 0 10 7 29 16 41 12 18 25 22 63 22 41 0 51 -4 65
-25z m310 3 c9 -12 16 -31 16 -41 0 -15 -5 -13 -26 12 -34 40 -67 40 -105 0
-33 -35 -41 -17 -13 26 14 21 24 25 65 25 38 0 51 -4 63 -22z m-464 -4 c0 -13
-21 -44 -30 -44 -6 0 -10 11 -10 25 0 18 5 25 20 25 11 0 20 -3 20 -6z m306
-10 c-3 -9 -6 -20 -6 -25 0 -5 -25 -9 -55 -9 -30 0 -55 4 -55 9 0 5 -3 16 -6
25 -5 14 4 16 61 16 57 0 66 -2 61 -16z m219 6 c-3 -5 -13 -10 -21 -10 -8 0
-14 5 -14 10 0 6 9 10 21 10 11 0 17 -4 14 -10z m-87 -22 c15 -15 15 -61 0
-76 -15 -15 -61 -15 -76 0 -17 17 -15 54 4 72 18 19 55 21 72 4z"/>
<path d="M463 293 c9 -2 23 -2 30 0 6 3 -1 5 -18 5 -16 0 -22 -2 -12 -5z"/>
<path d="M437 164 c-24 -24 13 -72 42 -55 20 13 9 56 -14 59 -12 2 -24 0 -28
-4z m35 -29 c0 -5 -5 -11 -11 -13 -6 -2 -11 4 -11 13 0 9 5 15 11 13 6 -2 11
-8 11 -13z"/>
<path d="M127 164 c-12 -13 -8 -52 7 -57 21 -8 49 16 44 39 -3 19 -38 31 -51
18z m33 -30 c0 -17 -22 -14 -28 4 -2 7 3 12 12 12 9 0 16 -7 16 -16z"/>
</g>
</svg>
