<?xml version="1.0" standalone="no"?>
<!DOCTYPE svg PUBLIC "-//W3C//DTD SVG 20010904//EN"
 "http://www.w3.org/TR/2001/REC-SVG-20010904/DTD/svg10.dtd">
<svg version="1.0" xmlns="http://www.w3.org/2000/svg"
 width="176.000000pt" height="192.000000pt" viewBox="0 0 176.000000 192.000000"
 preserveAspectRatio="xMidYMid meet">

<g transform="translate(0.000000,192.000000) scale(0.100000,-0.100000)"
fill="#000000" stroke="none">
<path d="M304 1527 c-3 -8 -4 -39 -2 -68 3 -47 6 -54 26 -57 34 -5 27 -30 -34
-122 -30 -46 -58 -97 -61 -112 -4 -21 -11 -28 -28 -28 -12 0 -30 -9 -41 -21
-17 -19 -19 -42 -22 -285 l-3 -265 30 -29 c25 -25 37 -30 80 -30 43 0 51 -3
51 -18 0 -26 42 -62 73 -62 15 0 37 -11 51 -25 30 -30 64 -32 98 -6 15 12 33
18 46 14 13 -3 33 2 49 13 16 11 43 19 61 20 34 1 72 28 72 51 0 10 19 13 75
13 65 0 75 -2 75 -17 0 -10 14 -56 30 -103 36 -104 38 -128 8 -132 -21 -3 -23
-9 -26 -71 l-3 -67 223 2 223 3 0 65 c0 63 -1 65 -27 68 -28 3 -28 4 -13 38 8
19 32 59 54 90 22 31 45 72 52 92 7 20 23 45 36 55 l23 18 0 273 c0 314 0 316
-76 316 -38 0 -44 3 -44 20 0 32 -45 72 -78 68 -19 -2 -33 4 -48 21 -24 28
-74 33 -101 9 -10 -8 -33 -15 -50 -15 -18 0 -41 -7 -50 -16 -10 -8 -36 -17
-58 -19 -32 -2 -43 -9 -60 -35 -20 -32 -21 -33 -90 -30 l-70 2 -6 40 c-3 22
-15 65 -26 95 -12 30 -23 68 -24 85 -3 24 0 30 21 35 23 6 25 10 25 70 l0 65
-218 3 c-178 2 -218 0 -223 -11z m406 -57 l0 -30 -185 0 -185 0 0 30 0 30 185
0 185 0 0 -30z m-32 -177 c49 -161 54 -152 -80 -155 l-113 -3 -6 -38 c-7 -47
-42 -85 -86 -93 l-33 -6 0 -77 c0 -97 -7 -120 -36 -127 -49 -13 -54 4 -54 193
0 192 0 192 71 292 21 29 41 69 45 87 l6 34 127 0 126 0 33 -107z m516 -59
c11 -4 16 -19 16 -50 0 -42 -1 -44 -30 -44 -28 0 -30 2 -30 38 0 21 5 43 12
50 14 14 12 14 32 6z m-86 -66 c3 -25 0 -28 -27 -28 -26 0 -31 4 -31 23 0 30
9 39 35 35 13 -2 21 -12 23 -30z m200 10 c21 -21 14 -38 -16 -38 -36 0 -44 8
-31 31 11 22 30 24 47 7z m-304 -23 c4 -11 -2 -15 -24 -15 -20 0 -30 5 -30 15
0 9 9 15 24 15 13 0 26 -7 30 -15z m-774 -205 c0 -150 0 -151 26 -175 34 -32
75 -32 111 -1 25 22 28 31 31 105 l4 81 34 16 c41 20 73 58 81 96 l6 28 456
-2 456 -3 1 -270 c0 -204 -1 -233 -5 -118 -6 140 -8 154 -28 175 -33 33 -89
30 -119 -6 -21 -23 -24 -37 -24 -105 l0 -77 -35 -13 c-38 -14 -79 -61 -89
-103 l-6 -28 -459 0 c-405 0 -461 2 -475 16 -14 13 -16 51 -16 255 0 240 5
279 35 279 13 0 15 -25 15 -150z m1158 -261 c2 -85 0 -168 -3 -186 -3 -17 -30
-67 -59 -112 -30 -44 -56 -91 -60 -106 l-6 -25 -130 0 c-128 0 -130 0 -130 23
0 12 -13 62 -30 110 -16 49 -30 95 -30 102 0 11 24 15 112 17 l112 3 8 40 c11
49 41 82 90 97 l38 11 0 88 c0 79 2 89 22 103 19 13 25 14 43 2 18 -12 20 -25
23 -167z m-990 -196 c-2 -12 -12 -18 -28 -18 -16 0 -26 6 -28 18 -3 13 3 17
28 17 25 0 31 -4 28 -17z m102 -23 c0 -27 -5 -43 -15 -46 -24 -10 -45 15 -45
52 0 31 3 34 30 34 28 0 30 -2 30 -40z m110 23 c-1 -50 -53 -59 -58 -10 -3 24
0 27 27 27 23 0 31 -5 31 -17z m100 7 c0 -19 -31 -23 -48 -6 -15 15 -14 16 16
16 18 0 32 -5 32 -10z m610 -310 l0 -30 -185 0 -185 0 0 30 0 30 185 0 185 0
0 -30z"/>
<path d="M712 1034 c-59 -29 -94 -70 -117 -133 -31 -88 -12 -164 56 -233 70
-70 169 -88 259 -47 90 41 134 107 133 204 -1 177 -175 287 -331 209z m175
-29 c48 -20 71 -41 93 -85 41 -81 33 -153 -23 -217 -39 -44 -82 -63 -142 -63
-63 0 -105 20 -148 70 -127 149 39 370 220 295z"/>
<path d="M794 958 c-4 -13 -15 -29 -25 -36 -22 -15 -26 -70 -6 -94 6 -9 26
-18 42 -20 22 -2 30 -8 30 -23 0 -26 -33 -32 -50 -8 -11 15 -16 16 -27 5 -10
-10 -10 -16 0 -30 7 -9 20 -29 30 -44 20 -32 42 -37 42 -9 0 10 11 26 25 35
51 33 23 116 -38 116 -20 0 -27 5 -27 20 0 15 7 20 25 20 14 0 25 -4 25 -10 0
-13 27 -13 35 0 8 14 -13 50 -30 50 -7 0 -15 10 -17 22 -4 30 -25 34 -34 6z"/>
<path d="M665 840 c-8 -13 14 -42 26 -34 5 3 9 14 9 25 0 20 -24 26 -35 9z"/>
<path d="M926 841 c-9 -14 5 -42 18 -38 18 6 20 47 2 47 -8 0 -17 -4 -20 -9z"/>
<path d="M1157 1054 c-16 -17 11 -24 86 -24 45 0 87 -4 94 -8 6 -4 13 -23 15
-42 2 -24 9 -36 21 -38 14 -3 17 4 17 41 0 67 -17 77 -132 77 -52 0 -98 -3
-101 -6z"/>
<path d="M240 671 c0 -71 20 -83 136 -79 74 3 89 6 92 20 3 15 -8 18 -90 20
l-93 3 -5 40 c-3 27 -10 41 -22 43 -15 3 -18 -4 -18 -47z"/>
</g>
</svg>
