<?xml version="1.0" standalone="no"?>
<!DOCTYPE svg PUBLIC "-//W3C//DTD SVG 20010904//EN"
 "http://www.w3.org/TR/2001/REC-SVG-20010904/DTD/svg10.dtd">
<svg version="1.0" xmlns="http://www.w3.org/2000/svg"
 width="512.000000pt" height="512.000000pt" viewBox="0 0 512.000000 512.000000"
 preserveAspectRatio="xMidYMid meet">

<g transform="translate(0.000000,512.000000) scale(0.100000,-0.100000)"
fill="#ffffff" stroke="none">
<path d="M1500 4686 c-146 -32 -253 -127 -299 -264 -72 -212 50 -441 268 -506
115 -34 244 -9 348 67 121 90 179 234 153 378 -30 165 -155 294 -318 328 -64
13 -81 13 -152 -3z m151 -152 c110 -33 192 -158 174 -267 -22 -130 -144 -227
-269 -214 -95 10 -166 60 -205 147 -62 137 23 304 174 341 47 11 68 10 126 -7z"/>
<path d="M736 3844 c-292 -39 -331 -51 -421 -135 -66 -62 -108 -136 -125 -216
-11 -57 -50 -507 -52 -596 -1 -81 23 -137 78 -185 91 -81 219 -83 305 -5 41
37 79 99 79 128 0 8 6 15 13 15 16 0 120 -30 127 -36 2 -3 -31 -73 -73 -157
-115 -226 -112 -208 -112 -633 l0 -361 -46 -54 c-25 -30 -51 -64 -58 -76 -24
-47 14 -103 70 -103 21 0 42 16 89 67 104 113 95 66 95 498 0 439 -3 421 105
615 32 58 62 118 66 133 3 16 12 26 18 24 6 -2 104 -32 218 -67 l206 -64 -25
-50 c-14 -28 -69 -132 -121 -231 l-95 -180 -43 -315 c-24 -173 -51 -336 -60
-363 -21 -63 -76 -133 -237 -302 l-134 -139 -40 34 c-23 19 -86 77 -142 128
-108 98 -137 111 -179 74 -35 -31 -201 -231 -219 -264 -12 -23 -18 -56 -18
-108 0 -101 19 -131 197 -306 168 -166 195 -181 276 -148 29 12 56 33 70 54
23 34 24 40 18 152 l-7 118 221 234 c122 129 235 252 251 273 76 94 101 173
135 427 15 113 30 206 33 206 13 -1 261 -387 261 -407 0 -11 -22 -194 -49
-405 -52 -400 -53 -427 -16 -497 20 -39 86 -97 126 -110 19 -6 121 -29 228
-51 218 -46 233 -45 290 14 34 35 49 92 37 139 -3 13 -34 61 -69 106 l-63 82
59 387 c63 424 66 486 28 599 -11 34 -101 198 -199 365 -98 167 -191 324 -206
350 l-27 46 43 -13 c24 -7 84 -25 133 -40 50 -15 106 -37 125 -50 94 -60 143
-78 210 -77 56 1 112 -14 395 -100 182 -56 334 -105 339 -109 6 -5 -4 -57 -22
-127 -46 -173 -41 -227 26 -284 34 -29 339 -116 440 -126 37 -4 67 -11 66 -15
-1 -4 -12 -59 -24 -121 l-23 -114 -181 -4 c-229 -6 -268 -18 -367 -117 -106
-106 -112 -131 -117 -433 l-4 -248 -108 0 c-105 0 -109 -1 -129 -26 -34 -43
-26 -86 20 -109 42 -22 2616 -22 2658 0 46 23 54 66 20 109 -19 25 -25 26
-109 26 l-88 0 -4 138 c-4 124 -7 142 -31 188 -44 86 -75 104 -326 188 -124
42 -232 76 -239 76 -7 0 -24 -11 -37 -25 -32 -31 -33 -75 -2 -102 12 -11 112
-50 222 -87 110 -37 210 -74 222 -82 33 -21 45 -76 41 -189 l-3 -100 -978 -3
-978 -2 3 237 c3 221 5 241 25 278 25 47 64 85 113 111 30 16 64 19 252 22
207 4 217 5 236 25 14 15 30 70 53 181 48 234 61 246 280 246 199 0 200 -1
290 -186 38 -78 76 -144 84 -148 58 -22 122 20 111 74 -11 58 -126 280 -163
317 -50 50 -123 84 -195 91 l-58 5 45 48 c53 56 55 72 24 192 -41 166 -133
301 -262 389 -79 53 -138 76 -348 133 -194 53 -225 54 -279 8 -41 -34 -53 -60
-80 -173 -12 -52 -26 -99 -30 -103 -5 -5 -137 31 -294 80 l-287 88 8 25 c4 14
8 54 8 90 0 105 -14 123 -236 302 l-194 157 -61 301 c-47 230 -66 307 -81 322
-30 30 -639 198 -712 197 -31 -1 -168 -16 -305 -35z m373 -128 c75 -40 62
-169 -21 -194 -18 -6 -130 -23 -248 -37 -238 -30 -282 -38 -300 -60 -6 -7 -29
-141 -50 -297 -37 -270 -40 -284 -65 -305 -33 -29 -74 -29 -110 -1 l-28 22 7
125 c14 271 42 514 64 557 27 53 88 107 143 127 43 16 452 74 537 76 24 1 55
-5 71 -13z m345 -92 c72 -20 136 -39 142 -43 8 -4 -24 -129 -101 -399 -62
-216 -115 -395 -117 -397 -4 -4 -439 124 -447 131 -2 2 24 102 59 222 l62 219
54 12 c109 25 194 123 202 232 2 32 7 59 10 59 3 0 64 -16 136 -36z m-568
-301 c-3 -10 -26 -92 -52 -183 -25 -91 -49 -168 -53 -173 -7 -7 -129 29 -145
44 -10 9 22 279 35 293 5 5 48 15 96 21 128 17 125 18 119 -2z m839 -191 c16
-81 35 -151 44 -162 9 -10 97 -82 196 -160 99 -78 188 -151 198 -162 49 -58
-17 -155 -88 -128 -45 17 -418 261 -457 298 -21 20 -41 45 -44 55 -7 24 107
432 117 415 3 -7 19 -77 34 -156z m-75 -967 c117 -198 221 -379 231 -402 36
-79 34 -137 -11 -438 -23 -154 -44 -282 -46 -285 -4 -4 -267 -1 -271 3 0 1 14
118 33 260 18 141 30 265 27 275 -4 9 -87 138 -185 285 -99 148 -182 275 -184
282 -5 11 185 389 192 382 1 -1 98 -164 214 -362z m1627 265 c97 -28 198 -63
225 -77 113 -62 190 -159 234 -297 l25 -81 -67 -64 c-44 -42 -92 -76 -143
-100 -74 -35 -79 -36 -191 -36 -106 0 -127 3 -267 44 -107 30 -153 48 -153 58
0 24 51 217 60 226 4 5 53 -5 108 -22 119 -37 146 -34 170 16 15 31 15 37 2
61 -12 22 -36 34 -125 63 -60 20 -111 41 -113 47 -3 9 6 47 39 175 5 20 12 37
15 37 3 0 84 -23 181 -50z m-2846 -1424 l66 -61 -45 -50 -45 -50 7 -120 6
-120 -129 130 c-130 130 -149 160 -137 209 3 13 36 60 73 104 l67 80 36 -31
c19 -16 65 -58 101 -91z m1362 -171 c-4 -73 1 -84 67 -170 33 -43 58 -80 56
-82 -6 -6 -308 58 -344 73 -50 20 -63 62 -50 157 l11 78 131 -3 131 -3 -2 -50z"/>
</g>
</svg>
